<svg version="1.1"  xmlns="http://www.w3.org/2000/svg" xmlns:xlink="http://www.w3.org/1999/xlink" x="0px" y="0px"
	 viewBox="0 0 460 600.2" style="enable-background:new 0 0 460 600.2;" xml:space="preserve">
<g id="Icon_soldier_final2">
		<linearGradient id="Rectangle-2_1_" gradientUnits="userSpaceOnUse" x1="-6345.1836" y1="7799.5889" x2="-6346.0771" y2="7798.6611" gradientTransform="matrix(460 0 0 -600 2919240 4679748)">
		<stop  offset="0" style="stop-color:#E6DDCE"/>
		<stop  offset="1" style="stop-color:#76685B"/>
	</linearGradient>
	<rect id="Rectangle-2" fill="url(#Rectangle-2_1_)" width="460" height="600"/>
	<path id="soldier-2" fill="#43413B" d="M337.4,348.7c1.9,0.7,2.6-2.4,0.3-2.9C334.5,345.2,334.8,349.3,337.4,348.7 M335.7,335.3
		c3.6-0.5,8.4,5.1,9.8,8c2,4.2,1.5,10.6-3.9,12.8C328.5,361.4,322.6,335.3,335.7,335.3 M199.6,20c2.6-1.8,6.1-3.4,7.2-6.6
		C203.9,12.9,199.6,17,199.6,20z M222.9,13.1c-6.5,0.5-19.6,9.6-21.1,16c3.4,0.1,8.4-5.1,11.3-7.1C214.7,20.9,225.8,14.2,222.9,13.1
		z M200.8,68.6c1.7,1.6,5.8-9.2,6.3-10.7c1.5-4,1.6-6.8,2.5-11.1c0.3-1.6,3.4-7.1,2.3-8.6c-3.3-4.8-6.5,7.6-7,9.5
		C203.1,54.6,202.7,61.7,200.8,68.6z M193.7,70.9c2-4.2,2.1-8.7,3.4-13.3c1-3.5,2.5-10.8,1.1-14.3c-1.3-3.2-4.8-4.4-7-7
		c-3-3.6-1.9-5.8-6-4c-8.2,3.6-5.4,13.7-2,19.9C187,58.9,191.9,63.3,193.7,70.9z M205.5,79.9c7-1.9,11.5-7.5,14.9-13.2
		c3.2-5.2,3.5-11.5,5.5-17.4c2.6-7.8,2.5-16.8,7.1-24.2c1.4-2.3,10.7-12.4,3.2-7.2c-5.3,3.7-7.6,10.8-11.5,15.5
		c-1.8,2.2-3.4,3.1-4.3,6c-1.1,3.7,0,7.6-0.9,11.2c-1.2,4.9-6,11.2-8.6,15.7C209.9,67.9,201.5,80,205.5,79.9z M449.7,403.7
		c-3.9-3.3-7.3-7.3-11.4-10.4c-8.9-6.8-19-14-29.2-18.6c-11.3-5.1-62.3-38.8-64.6-40.1c-3.2-1.8-7-9.5-15.6-6.2
		c-3.9,1.5-6.1,6.1-7.2,10c-1.5,5.3,1.5,7,4.3,11.2c5.3,7.9,14,10.9,21.1,16.8c8.4,6.9,18.5,9.2,28.1,13.9
		c11.7,5.7,24.1,9.7,35.7,15.7c6.2,3.2,12.5,6.3,19,9c6.6,2.8,8.2,3.7,16.4,5.4C454.4,412,455.5,408.5,449.7,403.7z M231.3,362
		c4.5-2.8,9.4-5.2,13.7-8.2c8.7-6,16.3-13.5,25.4-19.2c4-2.5,7.7-3.4,11-7.3c2.8-3.3,7.3-9.6,8.7-13.7c1.4-4.3,1.2-8.8-3.7-6.8
		c-5.2,2.1-15.8,12.1-21.4,15.9c-5.6,3.7-21.2,11.9-36.2,11.3s-25.4-6.7-33.5-10.4c-8-3.7-26.2-19.7-29.7-21c-2.9-1.1-1.7-0.7-3,1.9
		c-1.3,2.7-1.4,6.1-1,9c0.9,6.8,4.2,12.3,8.1,17.8c4,5.9,7.7,13,13.3,17.6c5.4,4.5,12.3,7.8,18.5,11c4.1,2.1,11.7,8.3,16.4,7.6
		C222.2,367.7,227.6,364.2,231.3,362z M212.1,379.5c0.7-6.4-5.8-6.5-10.1-7.8c-7.2-2.2-13.1-6.5-19.1-10.9
		c-9.7-7.1-14.6-16.6-22.4-25.4c-1.3-1.5-6.4-13.8-8.6-12.9c-2.8,1.1-2.8,13.3-3.5,16.1c-2.9,12.4-4.1,25.1-4.2,37.8
		c0,11.5,0.7,23.8-1.2,35.1c-0.7,4.3-1.8,12.7,4,14.7c2.6,0.9,9.5-2.4,11.9-3.3c9.3-3.6,17.7-12,26.3-17.1
		C193.5,400.9,213.7,391.8,212.1,379.5z M224.9,389.5c0,9.6,9.8,17.1,11.3,18.6c5.9,5.7,11.5,11.3,17.7,16.6
		c5.6,4.9,10.7,12.5,18.9,12.9c8.9,0.4,13.7-9.7,18.5-15.8c11-13.8,14.1-34.9,14.7-52.1c0.3-9.9,0.2-19.8,0.1-29.6
		c-0.1-8,0.1-18.3-4.2-25.3c-2.3,2.6-4.1,6.8-5.8,9.9c-2.1,3.8-4.3,6.8-7.1,10.3c-6.7,8.7-14.7,12.2-23.4,18.4
		c-8.3,5.9-15.4,11.7-24.7,16.1C232.3,373.6,224.9,379.9,224.9,389.5z M190.9,86.6c-4.1-2.4-6.2-4.9-8.2-9.2
		c-2.1-4.3-3.7-8.8-5.6-13.3c-1.7-4.2-4.6-7.7-6.4-11.7c-1.5-3.3-3.4-17.8-4.5-5.5c-0.7,8.5-1.2,17-5.2,24.5
		c-3.8,7.1-4.5,15.8-7.7,23.4c-3.8,8.9-5.3,3.9-9.3,26s-10.8,28.9,10.1,22.1c9.3-3,21.5-4.3,32.1-3c10.6,1.3,26.6,4.5,35.9,6.4
		c9.3,1.9,13-1.4,22.3-10.6s12.3-11.6,20.7-16.1c9.5-5,13.7-7.5,23.7-11.7c4.7-2,12.3-3.1,17.2-4.3c4.6-1.1,8.9-1,8.7-6.5
		c-0.2-4-3.3-8.9-5.7-11.9c-3.4-4.2-5.8-8.7-9-13c-5.6-7.4-14.3-13.5-21.1-19.9c-3.3-3.2-7.2-5.3-11-7.9c-4.3-2.9-4.8-6.6-8.4-10
		c-4-3.8-10-17.3-15-7.1c-0.5,1,0,2.6-0.3,3.5c-1,3.1-2.4,5.8-3.6,8.8c-1.9,5-2.5,10.5-3.5,15.7c-1.8,8.9-5.4,14.3-10.4,21.5
		c-6.7,9.6-14.8,11-26.1,12.3C195,88.4,193.2,88,190.9,86.6z M148.4,232.5c5.2-5.4,5.5,9.7,5.8,11.9c0.8,5.8,0,13.1,1.8,18.4
		c1.4,4.2,4.1,9.6,6.4,13.6c3.2,5.6,7.5,12.6,11.8,17.4c4.5,5,30.8,28.1,54.8,29.5c23.9,1.4,46.9-19.9,63.3-38
		c4.3-4.8,6.5-8.9,9.9-16c3.3-7,6.1-15.8,9.2-19.2c3.1-3.4,7,1.5,10.4-2.3c2.8-3.2,6.3-15.4,7.9-18.6c1.7-3.2,3.5-13.4,3.7-19
		c0.2-4.2,2.9-13.7-2.5-13c-5.3,0.7-6.2,8.1-8.9,11.5c-3.4,4.3-6.8,5.6-7.2-0.7c-0.5-8.2,0.1-16.6,0.1-24.8c0-14.6-9.6-21-16-33
		c-3.4-6.3,0.7-10.9-1.3-17.2c-1.8-5.8-7.9-8.4-13.6-6.8c-6.2,1.7-11.7,7.2-16.9,10.8c-6,4.2-12.2,7.9-19.1,10.7
		c-12.7,5.1-24.2,8.7-37.8,5.4c-13.4-3.3-24.5-3.1-37.6,1.2c-6.6,2.2-14.1,3.9-18,10.1c-3.7,5.7-6.4,15.3-7.1,22
		c-0.5,4.7,5.2,12.7,2.4,17.1c-3,4.8-5.9-1.1-7.3-3.9c-1.4-2.7-2.1-5.6-4.1-8c-2.9-3.6-2.1-3.3-3.9,0c-3.3,6.2-4.5,15.1-3.2,22.2
		c1.7,9.2,9.2,19.8,15.4,26.9C148.6,240.4,147.3,233.7,148.4,232.5z M460,437.1c-5.4,1.2-22.8-16.4-34.3-22
		c-12.8-6.3-27-11.6-39.3-17.5c-6.8-3.3-13.6-6.6-20.6-9.3c-6.6-2.5-27.8-15.9-32.4-18.8c-4.6-2.8-13.4-14.7-16.3-16.1
		c-2.3,7.5,0.7,16.5-1,24.2c-1.7,8.2-1.7,16.7-4,25c-2.6,9.3-6.7,18.1-12.4,26c-2.5,3.4-3.9,6.8-6.4,10.3c-2,2.8-6.2,9.6-9.1,11.4
		c-5.1,3.1-8.2,2-20.8-6.3c-12.7-8.2-33.3-28.1-36.6-31.6c-3.3-3.5-5-9.3-6-11.7c-2.9,1.6-19.4,34.8-24.3,44.8
		c-8,16.5-11.2,34.8-11.2,53.2c0,10.8,0.3,19.8,1.5,32c1.1,12.2,0.2,22.8,1.6,34.2c1.2,9.5,0.9,21,4.1,29.7c0.5,1.5,2.5,3.2,1.4,5.1
		c-0.5,0.8-8.7,0-10.3,0c-3.7,0-5.8,1-7-1.7c-0.9-2,0.7-5,0.7-7c-5.3,1.9-4.3,3.6-10.1,3.7c-7.4,0.1-11.7-0.3-18.7-2.2
		c-3.1-0.8-11-1.9-15.6-1.9c-4.6,0-8.1,1.5-10.7,1.9c-4.4,0.7-12.3,6.1-13.8,6.7c-2.4,0.9-7.3,1-10.5,1c-2,0-7.1,0.2-10-2.3
		c-4.4-3.7-8.5-8.4-11.4-13.3c-2.2-3.7-4.2-8.3-7.9-11.9c-3.6-3.6-7-5.2-10.9-9.1c-2.7-2.8-5.8-7.2-7.4-10.9
		c-2.3-5.4-2.6-13.2-2.6-19.3c0-10.6,1-25,8.3-33.4c3.8-4.4,11-8.5,9.3,0.7c-1.2,6.7-4,12.9-6,19.4c-2.1,6.7-4.7,15.9-2.8,22.9
		c1.6,6,9.4,14,14,18.1c4.4,3.9,5.6,4.4,8.8,9.6c3,4.9,5.8,10.1,9.4,15c3.6,4.9,10.1,8.2,15.5,5.4c1.4-0.7,9.3-5.9,10.7-6.5
		c1.3-0.5,19.1-6.2,34.1-2.4c15,3.7,28.2-0.4,29.5-9.5c1.4-9.1,1.3-24.3,0-33.1c-1.3-8.8-4-21.1-4-31.8c0-24.8,2-40.8,8.9-59.6
		c3.4-9.1,7.3-17.6,13-25.3c1.2-1.6,12.3-19.5,15.4-24.3c-0.5-0.2-11.7,10.1-13.1,11.1c-4.6,3.5-9.4,5.5-14.5,8.6
		c-11.4,7.1-21.7,14.7-35.6,15.8c-5.9,0.5-12.1,3.2-14-3.9c-1.5-5.6,0.1-13.5,0.2-19.2c0.2-14.8,0.3-29.3,1.2-44.2
		c0.1-1.2,1.4-7.9,0.6-8.5c-2.2-1.6-1.7,0.2-3.5,1.9c-4.7,4.4-6.2,6.9-12.8,7.9c-13,2-26.9-0.7-40.1,1.5c-6.9,1.1-14.6,2.2-20.9,5.1
		c-7.3,3.3-46.3,20.2-58.9,24.5c0-2.4-1-7,0-9.2c1-2.1,6.1-4.4,8.4-6.1c5.4-3.8,39.5-16.8,44.9-18.8c13.3-4.8,29.8-6.2,44.2-5.6
		s23.3-1,32.8-10.2c4.9-4.7,8.2-9.7,8.7-16.6c0.5-6.8-0.3-15-8.5-16.1c-4.4-0.6-9.9,1.8-13.8,3.6c-6.2,2.8-11.4,5.5-18,7.5
		c-12.1,3.8-95.9,44.6-98.6,42.6c-0.4-0.3-0.4-10.6,0-11.5c1.2-2.6,5.1-2.4,8.4-3.5c7-2.3,77.8-34.3,90.2-37.6
		c6-1.6,12.7-5.4,18-8.6c5.2-3.1,10.8-7.2,17-4.7c3.5,1.4,10.4,9.3,14.4,7.3c3.3-1.7,4-12.2,4.5-15.7c1.7-11.5-3.7-25-7.3-35.9
		c-4-12.1-13.5-20.7-17.4-32.7c-4.1-12.3-7.4-24.2-4.2-37.3c3-12.3,5-23.7,6.1-36.5c0.4-5.3,0-10.6,1.4-15.7
		c0.8-2.8,5.7-27.6,7.7-32.3c2.9-6.6,12.9-46.3,17.3-58.8c1.9-5.5,3.2-11.4,5.4-16.7c2.7-6.9,9.1-5.8,14.8-9.2
		c4.4-2.5,7.3-7.2,11.3-9.9c4-2.7,12.4-2.8,17.7-1.8c0.9,0.2,2.9,1.8,3.3,1.8c1.2,0,1.4-1.7,2.4-1.8c8-0.7,16.4-0.1,24.4-0.1
		c5.4,0,16.6-2.3,21.4,0.2c1.2,0.6,2.1,3.2,3,4.2c2.1,2.3,4.9,3.7,6.9,6.1c3.2,4,5.1,9,8.4,13.1c4,5,8.8,8.9,13.5,13.2
		c3.6,3.3,7.8,6.3,11.1,9.9c4.4,4.7,7.4,10.6,11.6,15.5c4.5,5.2,6.9,9.2,10.1,15.3c2.9,5.6,7.1,10.1,8.7,16.3
		c1.5,5.8,2.1,12,3.9,17.8c2.3,7.2,4.8,12.8,5.1,20.5c0.3,7.3,1.4,14.5,1.5,21.8c0.2,6.7-1.3,11.5-2.6,17.1
		c-1.1,4.5-2.8,7.8-0.2,11.4c3.5,4.8,5.9,7.9,5.5,14.6c-0.8,12.7-6.5,23.1-10.3,34.8c-1.5,4.5-3,10.5-5.9,14.5
		c-1.6,2.2-3.6,4.2-6.6,4.1c-2.2-0.1-4.1-3.1-6.6-1.5c-1,0.7-3.1,7.5-3.8,9.1c-2.2,5-4,9.9-5.5,15.3c-1.6,6.1-2.6,11.7-0.9,18
		c1.8,6.6,5.3,9.4,9.3,14.5c1.3,1.7,3.7,10.3,4.9,10.4c1.5,0.1,3-3.3,4.1-4.3c1.9-1.6,7.6-4.8,10-4.9c4.6-0.2,10.2,5.9,13.4,8.7
		c5.2,4.7,90.1,52.9,96.5,57.5s11.2,9.1,14,11.1s3.5,6,3.5,7.2V437.1z M324.6,595.7c0.9-0.3,2-0.5,3.3-1.3c2.7-1.6,4.6-5.3,6.6-7.6
		c5.2-6.1,8.6-12.7,14.2-18.8c2.7-2.9,5.8-5.4,9-7.7c3.4-2.4,9.2-4.1,12.6-6.6c8.7-6.4,10.6-16.9,13.4-26.9
		c1.6-5.9,7.8-20.2,16.3-16.2c7.4,3.5,2.1,19.9,1.7,26.1c-0.4,6.2-1,20.9-2.6,31.5c-1.6,10.2-0.9,20.9-0.7,31.2
		c-2.6,0-8.2,1.1-10.6,0c-3-1.4-1.7-5.1-1.7-8.7c0-5.6-1.3-11.1-1.2-16.6c0.1-4.1,4.2-11.6,0-14.5c-5.6-3.8-6.1,3.5-9.4,6.2
		c-2,1.7-11.1,5.3-12.9,6.8c-4.1,3.4-6.2,8-10,11.9c-3.7,3.8-4.9,8.7-8.1,12.5c-0.2,1.7-0.8,2.7-2,2.9c0,0,0,0,0,0.1
		c-29.4,0-46,0-50,0c0.5-4.2-23.7-4.2-26.5-4.9c-6.2-1.4-12.4-3.2-18.6-4.5c-4.9-1.1-6.1-1.6-4.8-7c1.5-6.4,5.3-12.4,7.4-18.7
		c1.9-5.7,2.3-11.5,2.1-17.6c-0.1-3.9-1.1-13.8,6.9-9.7c3.8,2,4.3,8.2,4.3,11.8c0,5.1-1.4,10.9-2.5,15.9c-0.8,3.6-5.5,9.7-3.3,13
		c2.1,3.3,14.6,1,18.4,1.3c5.4,0.4,12.5,1.3,17.6,3.2c7.6,2.9,13.2,10.4,20.9,12.7C315,595.8,319.5,595.7,324.6,595.7z M27.9,586.3
		c1.7-5.4,3-11.3,3.6-16.9c1.5-13.6,2.4-28,2.6-41.7c0.1-7.2,0.6-14.5,0-21.7c-0.4-4.4-4.9-14.4-2.6-18.8c2.7-5.1,8.5,0.9,10.3,4.2
		c3.1,5.6,2.9,10.5,3,16.8c0.1,6.1,1.3,13.5-0.1,19.4c-0.4,1.5-0.5,8.8,0,11.3c1.3,6.6,0.3,13.5,1.7,20.2c1.1,5.7,0.5,11.9,2.2,17.5
		c1.2,3.9,1.9,8.1,3.1,12c0.6,1.8,1.2,3.7,2.1,5.4c1.1,0.9,2,2,2.7,3.3c0.7,2.6-0.4,3.3-3.3,2.2c-2.4,0.7-7.8,0.5-10,0
		c-2.4,1.1-3.5,0.9-3.4-0.7c0-1.1-0.4-1.5-1.1-1.4c-0.4,0-0.7,0.1-1,0.4c-0.1,2-1.3,2.6-3.6,1.6c-3.6,0.8-8.5,0-12.3,0
		C21.4,595,26.5,590.8,27.9,586.3z M320.3,579.4c0,0.1-5.5,0.5-2,2.8C321.5,584.2,326,579.4,320.3,579.4 M316.6,591.1
		c-3.7-0.3-11.4-2.3-10-9.9c1.3-7.5,11.3-10.6,18.2-10.4c7.1,0.2,10,5,6.9,11.2c-0.9,1.9-3.2,5.4-4.8,6.7
		C326.1,589.3,320.3,591.4,316.6,591.1z M100,575.2c-2.4-0.3-6.2,4.9-1.9,4.6C101.1,579.5,104.6,575.7,100,575.2z M99.8,587.8
		c-5.7-0.8-11.2-5.4-11.4-11.8c-0.2-8.1,10.1-8,15.6-7.5c3.9,0.3,4.1,0.2,5.4,3.3c0.8,2,0.8,9.4-0.1,11.3
		C108.2,585.4,99.8,587.9,99.8,587.8 M121.5,338.3c2.8,0,2.9-3.4,0.2-3.5C119,334.8,118.8,338.3,121.5,338.3 M133.7,332.9
		c1,6.6-5.8,11.9-11.3,12.9c-7.9,1.5-13,1-14.3-7.8c-1.1-7.3,4.8-9.3,10.9-12.1C125.8,322.7,133.8,323.4,133.7,332.9 M314.9,233.3
		c1.6-2.3,6.4-5.9,7-8.2c1-4.4-1.4-1.6-3.7-4.1c-1.8-2-1.2-4.1,0.5-6.2c0.9-1.2,6-4.6,7.5-4.2c1.4,0.4,3.9,7,3.9,8.4
		c0,2.4-2.7,6-3.8,8.2C324.5,231.2,318.7,238.8,314.9,233.3 M140.4,206c6.4,0.8,7.3,10.6,2.5,13.9C135.5,225,133.7,206,140.4,206
		 M204.1,92.2l6.9,11.4l13.1-3c1.8-0.4,3.1,1.7,1.9,3.1l-8.8,10.1l6.9,11.4c1,1.6-0.7,3.5-2.4,2.8l-12.3-5.2l-8.8,10.1
		c-1.2,1.4-3.5,0.4-3.4-1.4l1.2-13.3l-12.3-5.2c-1.7-0.7-1.5-3.2,0.3-3.6l13.1-3l1.2-13.3C200.7,91.1,203.1,90.6,204.1,92.2"/>
</g>
</svg>
